<?xml version="1.0" standalone="no"?>
<!DOCTYPE svg PUBLIC "-//W3C//DTD SVG 20010904//EN"
 "http://www.w3.org/TR/2001/REC-SVG-20010904/DTD/svg10.dtd">
<svg version="1.0" xmlns="http://www.w3.org/2000/svg"
 width="482.000000pt" height="482.000000pt" viewBox="0 0 482.000000 482.000000"
 preserveAspectRatio="xMidYMid meet">
<metadata>
Created by potrace 1.14, written by Peter Selinger 2001-2017
</metadata>
<g transform="translate(0.000000,482.000000) scale(0.100000,-0.100000)"
fill="#000000" stroke="none">
<path d="M1974 3478 c-54 -52 -166 -239 -195 -325 -18 -56 -27 -68 -72 -98
-83 -56 -120 -82 -151 -106 -15 -12 -36 -22 -45 -22 -26 2 -92 -26 -123 -52
-15 -13 -85 -84 -155 -157 -172 -179 -185 -189 -283 -199 -43 -4 -91 -14 -107
-22 -39 -21 -196 -209 -265 -319 -65 -102 -196 -277 -307 -406 -199 -235 -275
-348 -264 -393 11 -41 47 -44 453 -43 212 0 437 4 500 8 102 7 130 5 249 -18
160 -31 220 -32 456 -6 220 24 399 25 542 4 132 -20 306 -15 538 17 196 26
441 22 595 -9 177 -37 278 -44 516 -40 219 5 234 6 349 37 66 18 180 39 255
47 75 9 145 21 157 29 12 8 55 18 95 21 107 10 126 20 48 27 -36 3 -119 11
-185 17 l-120 12 -150 80 c-286 155 -330 185 -462 316 -95 96 -83 89 -243 132
-60 16 -125 67 -232 181 -120 130 -213 196 -328 234 -63 21 -95 39 -134 75
-29 25 -102 76 -163 113 -119 72 -164 115 -223 217 -38 66 -45 71 -171 131
-54 25 -67 53 -83 174 -13 101 -19 119 -72 223 -71 139 -91 162 -139 162 -29
0 -45 -9 -81 -42z"/>
</g>
</svg>
